name C:\Users\u0101727\Documents\MyRepositories\upper-imu-dc\Results\main_tracking\Case_41\FLX01_linearAccelerations_groundFrame.mot
datacolumns 4
datarows 117
range 2.01000000 3.17000000
endheader 
time	radius_imu_x	radius_imu_y	radius_imu_z	
          2.01000000	         -1.81809746	          9.41860618	          2.28324808	
          2.02000000	         -1.69068977	          9.32456431	          2.21144736	
          2.03000000	         -1.55917146	          9.23495778	          2.13064597	
          2.04000000	         -1.42598975	          9.15255208	          2.04229061	
          2.05000000	         -1.29360713	          9.07964294	          1.94773845	
          2.06000000	         -1.16447924	          9.01806551	          1.84814349	
          2.07000000	         -1.04104410	          8.96922897	          1.74449403	
          2.08000000	         -0.92568230	          8.93413782	          1.63776660	
          2.09000000	         -0.82061276	          8.91336970	          1.52910383	
          2.10000000	         -0.72769941	          8.90699756	          1.41993256	
          2.11000000	         -0.64819135	          8.91448902	          1.31198440	
          2.12000000	         -0.58251441	          8.93467091	          1.20722682	
          2.13000000	         -0.53024261	          8.96581078	          1.10774906	
          2.14000000	         -0.49025895	          9.00576928	          1.01563298	
          2.15000000	         -0.46106058	          9.05222247	          0.93278180	
          2.16000000	         -0.44103170	          9.10285631	          0.86069010	
          2.17000000	         -0.42857847	          9.15548295	          0.80020330	
          2.18000000	         -0.42213034	          9.20808173	          0.75134480	
          2.19000000	         -0.42007096	          9.25880179	          0.71327649	
          2.20000000	         -0.42069398	          9.30597403	          0.68441870	
          2.21000000	         -0.42227415	          9.34816354	          0.66269970	
          2.22000000	         -0.42327691	          9.38425736	          0.64587723	
          2.23000000	         -0.42260361	          9.41352841	          0.63187626	
          2.24000000	         -0.41972794	          9.43562525	          0.61910786	
          2.25000000	         -0.41462794	          9.45046475	          0.60670036	
          2.26000000	         -0.40753655	          9.45806670	          0.59456409	
          2.27000000	         -0.39862068	          9.45840840	          0.58326370	
          2.28000000	         -0.38772704	          9.45137600	          0.57374063	
          2.29000000	         -0.37427841	          9.43684283	          0.56697454	
          2.30000000	         -0.35733771	          9.41483128	          0.56366453	
          2.31000000	         -0.33579271	          9.38569313	          0.56399117	
          2.32000000	         -0.30861400	          9.35024562	          0.56749874	
          2.33000000	         -0.27514128	          9.30983125	          0.57311529	
          2.34000000	         -0.23533666	          9.26627855	          0.57930804	
          2.35000000	         -0.18991528	          9.22176033	          0.58434775	
          2.36000000	         -0.14030202	          9.17858739	          0.58660162	
          2.37000000	         -0.08844294	          9.13899198	          0.58472922	
          2.38000000	         -0.03653513	          9.10494191	          0.57769876	
          2.39000000	          0.01327202	          9.07800753	          0.56466822	
          2.40000000	          0.05914019	          9.05928740	          0.54485540	
          2.41000000	          0.09971117	          9.04937968	          0.51749968	
          2.42000000	          0.13415619	          9.04839423	          0.48195002	
          2.43000000	          0.16213617	          9.05600388	          0.43783970	
          2.44000000	          0.18370925	          9.07152646	          0.38527152	
          2.45000000	          0.19921273	          9.09401746	          0.32494798	
          2.46000000	          0.20914375	          9.12235757	          0.25821861	
          2.47000000	          0.21405759	          9.15532956	          0.18704446	
          2.48000000	          0.21448322	          9.19168588	          0.11388927	
          2.49000000	          0.21084891	          9.23021075	          0.04154304	
          2.50000000	          0.20343709	          9.26978396	         -0.02711729	
          2.51000000	          0.19240804	          9.30944281	         -0.08941850	
          2.52000000	          0.17790352	          9.34841186	         -0.14320239	
          2.53000000	          0.16019241	          9.38607437	         -0.18709397	
          2.54000000	          0.13980231	          9.42190638	         -0.22064541	
          2.55000000	          0.11759269	          9.45542506	         -0.24431107	
          2.56000000	          0.09473798	          9.48618538	         -0.25926795	
          2.57000000	          0.07261439	          9.51381344	         -0.26713916	
          2.58000000	          0.05257918	          9.53805310	         -0.26968993	
          2.59000000	          0.03572821	          9.55878710	         -0.26856818	
          2.60000000	          0.02268072	          9.57603066	         -0.26513248	
          2.61000000	          0.01347874	          9.58990114	         -0.26038136	
          2.62000000	          0.00764792	          9.60059054	         -0.25495464	
          2.63000000	          0.00439609	          9.60834970	         -0.24916451	
          2.64000000	          0.00285275	          9.61347660	         -0.24301443	
          2.65000000	          0.00226441	          9.61629683	         -0.23620196	
          2.66000000	          0.00209091	          9.61714279	         -0.22812844	
          2.67000000	          0.00199773	          9.61634499	         -0.21795371	
          2.68000000	          0.00177897	          9.61423396	         -0.20472167	
          2.69000000	          0.00125954	          9.61113150	         -0.18753940	
          2.70000000	          0.00021993	          9.60731016	         -0.16575118	
          2.71000000	         -0.00162282	          9.60292624	         -0.13905193	
          2.72000000	         -0.00455650	          9.59795797	         -0.10752913	
          2.73000000	         -0.00874078	          9.59218825	         -0.07166019	
          2.74000000	         -0.01404367	          9.58525460	         -0.03229164	
          2.75000000	         -0.01992395	          9.57675961	          0.00940218	
          2.76000000	         -0.02542588	          9.56639417	          0.05200178	
          2.77000000	         -0.02928386	          9.55402375	          0.09398771	
          2.78000000	         -0.03009438	          9.53966233	          0.13388634	
          2.79000000	         -0.02656318	          9.52349380	          0.17044138	
          2.80000000	         -0.01763771	          9.50581862	          0.20271183	
          2.81000000	         -0.00261163	          9.48698408	          0.23020284	
          2.82000000	          0.01876510	          9.46746447	          0.25284329	
          2.83000000	          0.04628821	          9.44781084	          0.27097404	
          2.84000000	          0.07939287	          9.42862219	          0.28532038	
          2.85000000	          0.11729811	          9.41046403	          0.29692900	
          2.86000000	          0.15916150	          9.39378242	          0.30705784	
          2.87000000	          0.20417796	          9.37885978	          0.31702229	
          2.88000000	          0.25160754	          9.36583517	          0.32801391	
          2.89000000	          0.30076828	          9.35477198	          0.34091916	
          2.90000000	          0.35104195	          9.34573312	          0.35617326	
          2.91000000	          0.40191004	          9.33883087	          0.37368254	
          2.92000000	          0.45299967	          9.33424327	          0.39282970	
          2.93000000	          0.50410009	          9.33220822	          0.41255302	
          2.94000000	          0.55512066	          9.33300386	          0.43147717	
          2.95000000	          0.60599201	          9.33691323	          0.44807539	
          2.96000000	          0.65653663	          9.34416591	          0.46085107	
          2.97000000	          0.70634374	          9.35485671	          0.46852394	
          2.98000000	          0.75469035	          9.36886588	          0.47018847	
          2.99000000	          0.80055179	          9.38583182	          0.46540469	
          3.00000000	          0.84271685	          9.40520539	          0.45420128	
          3.01000000	          0.87997225	          9.42635382	          0.43700426	
          3.02000000	          0.91128502	          9.44865160	          0.41452796	
          3.03000000	          0.93591491	          9.47151948	          0.38767095	
          3.04000000	          0.95342807	          9.49441580	          0.35744513	
          3.05000000	          0.96364006	          9.51680655	          0.32493577	
          3.06000000	          0.96655928	          9.53814383	          0.29126602	
          3.07000000	          0.96239584	          9.55788299	          0.25754971	
          3.08000000	          0.95163660	          9.57555245	          0.22482925	
          3.09000000	          0.93511590	          9.59085117	          0.19401061	
          3.10000000	          0.91400223	          9.60372206	          0.16581201	
          3.11000000	          0.88966413	          9.61436823	          0.14072424	
          3.12000000	          0.86345813	          9.62320247	          0.11897810	
          3.13000000	          0.83652481	          9.63075520	          0.10052428	
          3.14000000	          0.80965826	          9.63757667	          0.08503848	
          3.15000000	          0.78327313	          9.64414956	          0.07196588	
          3.16000000	          0.75744938	          9.65081643	          0.06061319	
          3.17000000	          0.73203864	          9.65774033	          0.05026349	
